<svg width="45" height="44" viewBox="0 0 45 44" fill="none" xmlns="http://www.w3.org/2000/svg">
<circle cx="22.5" cy="22" r="22" fill="#3BB77E"/>
<g clip-path="url(#clip0_92_1911)">
<path d="M34.4976 17.0685C34.4413 15.791 34.2347 14.9128 33.9388 14.1518C33.6335 13.344 33.1639 12.6208 32.5485 12.0196C31.9473 11.409 31.2193 10.9346 30.4209 10.6341C29.6555 10.3381 28.7818 10.1315 27.5044 10.0752C26.2174 10.0141 25.8088 10 22.5446 10C19.2804 10 18.8718 10.0141 17.5896 10.0705C16.3122 10.1268 15.4339 10.3335 14.6731 10.6293C13.8651 10.9346 13.1419 11.4042 12.5407 12.0196C11.9301 12.6208 11.4559 13.3488 11.1552 14.1472C10.8592 14.9128 10.6527 15.7863 10.5963 17.0637C10.5352 18.3507 10.5211 18.7593 10.5211 22.0235C10.5211 25.2877 10.5352 25.6962 10.5916 26.9785C10.6479 28.2559 10.8547 29.1342 11.1506 29.8952C11.4559 30.703 11.9301 31.4262 12.5407 32.0274C13.1419 32.638 13.8699 33.1124 14.6683 33.4129C15.4339 33.7088 16.3074 33.9154 17.585 33.9717C18.8671 34.0283 19.2758 34.0422 22.54 34.0422C25.8042 34.0422 26.2128 34.0283 27.495 33.9717C28.7725 33.9154 29.6507 33.7088 30.4115 33.4129C32.0273 32.7882 33.3048 31.5108 33.9294 29.8952C34.2252 29.1296 34.432 28.2559 34.4883 26.9785C34.5446 25.6962 34.5587 25.2877 34.5587 22.0235C34.5587 18.7593 34.554 18.3507 34.4976 17.0685ZM32.3326 26.8845C32.2808 28.0587 32.0836 28.6928 31.9192 29.1155C31.5152 30.1629 30.684 30.9941 29.6366 31.3981C29.2139 31.5625 28.5752 31.7597 27.4057 31.8113C26.1376 31.8678 25.7572 31.8817 22.5494 31.8817C19.3415 31.8817 18.9564 31.8678 17.6929 31.8113C16.5187 31.7597 15.8847 31.5625 15.462 31.3981C14.9408 31.2055 14.4663 30.9002 14.0812 30.501C13.682 30.1111 13.3767 29.6415 13.1841 29.1202C13.0197 28.6975 12.8225 28.0587 12.7709 26.8893C12.7144 25.6212 12.7005 25.2407 12.7005 22.0328C12.7005 18.825 12.7144 18.4399 12.7709 17.1766C12.8225 16.0024 13.0197 15.3683 13.1841 14.9456C13.3767 14.4242 13.682 13.95 14.086 13.5647C14.4757 13.1655 14.9453 12.8602 15.4668 12.6677C15.8895 12.5034 16.5283 12.3061 17.6977 12.2544C18.9658 12.1981 19.3463 12.184 22.554 12.184C25.7666 12.184 26.1469 12.1981 27.4104 12.2544C28.5846 12.3061 29.2186 12.5034 29.6413 12.6677C30.1626 12.8602 30.637 13.1655 31.0221 13.5647C31.4213 13.9546 31.7266 14.4242 31.9192 14.9456C32.0836 15.3683 32.2808 16.007 32.3326 17.1766C32.3889 18.4447 32.403 18.825 32.403 22.0328C32.403 25.2407 32.3889 25.6164 32.3326 26.8845Z" fill="white"/>
<path d="M22.5447 15.8474C19.135 15.8474 16.3685 18.6137 16.3685 22.0235C16.3685 25.4334 19.135 28.1997 22.5447 28.1997C25.9545 28.1997 28.7208 25.4334 28.7208 22.0235C28.7208 18.6137 25.9545 15.8474 22.5447 15.8474ZM22.5447 26.0298C20.3326 26.0298 18.5384 24.2357 18.5384 22.0235C18.5384 19.8113 20.3326 18.0172 22.5447 18.0172C24.7569 18.0172 26.551 19.8113 26.551 22.0235C26.551 24.2357 24.7569 26.0298 22.5447 26.0298Z" fill="white"/>
<path d="M30.4069 15.6032C30.4069 16.3995 29.7613 17.0451 28.9649 17.0451C28.1687 17.0451 27.5231 16.3995 27.5231 15.6032C27.5231 14.8068 28.1687 14.1614 28.9649 14.1614C29.7613 14.1614 30.4069 14.8068 30.4069 15.6032Z" fill="white"/>
</g>
<defs>
<clipPath id="clip0_92_1911">
<rect width="24" height="24.0423" fill="white" transform="translate(10.5 10)"/>
</clipPath>
</defs>
</svg>
