<svg width="18" height="19" viewBox="0 0 18 19" fill="none" xmlns="http://www.w3.org/2000/svg">
<g clip-path="url(#clip0_92_1851)">
<path fill-rule="evenodd" clip-rule="evenodd" d="M9 2C7.4087 2 5.88258 2.63214 4.75736 3.75736C3.63214 4.88258 3 6.4087 3 8C3 10.3235 4.5118 12.5782 6.16946 14.3279C6.98296 15.1866 7.799 15.8896 8.41251 16.3781C8.64084 16.5599 8.84027 16.7114 9 16.8294C9.15973 16.7114 9.35916 16.5599 9.58749 16.3781C10.201 15.8896 11.017 15.1866 11.8305 14.3279C13.4882 12.5782 15 10.3235 15 8C15 6.4087 14.3679 4.88258 13.2426 3.75736C12.1174 2.63214 10.5913 2 9 2ZM9 17.75C8.58397 18.374 8.58379 18.3739 8.58357 18.3738L8.58143 18.3723L8.57643 18.369L8.55924 18.3574C8.54464 18.3474 8.52381 18.3332 8.49717 18.3147C8.4439 18.2778 8.36735 18.2241 8.27084 18.1544C8.07791 18.0151 7.80477 17.8117 7.47812 17.5516C6.826 17.0323 5.95454 16.2821 5.08054 15.3596C3.3632 13.5468 1.5 10.9265 1.5 8C1.5 6.01088 2.29018 4.10322 3.6967 2.6967C5.10322 1.29018 7.01088 0.5 9 0.5C10.9891 0.5 12.8968 1.29018 14.3033 2.6967C15.7098 4.10322 16.5 6.01088 16.5 8C16.5 10.9265 14.6368 13.5468 12.9195 15.3596C12.0455 16.2821 11.174 17.0323 10.5219 17.5516C10.1952 17.8117 9.92209 18.0151 9.72916 18.1544C9.63265 18.2241 9.5561 18.2778 9.50283 18.3147C9.47619 18.3332 9.45536 18.3474 9.44076 18.3574L9.42357 18.369L9.41857 18.3723L9.41699 18.3734C9.41678 18.3735 9.41603 18.374 9 17.75ZM9 17.75L9.41603 18.374C9.1641 18.542 8.83549 18.5417 8.58357 18.3738L9 17.75Z" fill="#3BB77E"/>
<path fill-rule="evenodd" clip-rule="evenodd" d="M9 6.5C8.17157 6.5 7.5 7.17157 7.5 8C7.5 8.82843 8.17157 9.5 9 9.5C9.82843 9.5 10.5 8.82843 10.5 8C10.5 7.17157 9.82843 6.5 9 6.5ZM6 8C6 6.34315 7.34315 5 9 5C10.6569 5 12 6.34315 12 8C12 9.65685 10.6569 11 9 11C7.34315 11 6 9.65685 6 8Z" fill="#3BB77E"/>
</g>
<defs>
<clipPath id="clip0_92_1851">
<rect width="18" height="18" fill="white" transform="translate(0 0.5)"/>
</clipPath>
</defs>
</svg>
